<svg viewBox="0 0 1489 814.7" version="1.1" xmlns="http://www.w3.org/2000/svg" id="Icon-Social-Profile-RGB">
  
  <defs>
    <style>
      .st0 {
        fill: #fee49b;
        fill-rule: evenodd;
      }
    </style>
  </defs>
  <g id="huny">
    <path d="M1415.4,258v136.8c0,21.5-3.9,40.7-11.5,57.7-7.6,16.9-18.1,30.3-31.5,40.1-13.3,9.8-28.1,14.7-44.4,14.7-18.1-.5-31.5-5.6-40.1-15.4-8.6-9.8-13.1-22.3-13.6-37.6v-196.3c0,0-73.6,0-73.6,0v222.1c.4,26.7,9.8,48.5,28.2,65.2,18.4,16.7,41.6,25.1,69.7,25.1,28.6,0,53.2-6.4,73.7-19.3,20-12.6,35.1-28.4,45.1-47.4v311c0,0,71.4,0,71.4,0l.2-556.7h-73.7ZM1059.9,270.8c-17.6-16.7-40.3-25.1-67.9-25.1-18.1,0-35,3-50.8,8.9-15.7,6-29.3,14.3-40.8,25.1-10.5,9.8-18.7,20.8-24.8,32.8l-4.5-54.7h-66.5s0,300.2,0,300.2h73.7s0-136.1,0-136.1c0-22,3.7-41.4,11.1-58.4,7.4-17,17.4-30.3,30.1-40.1,12.6-9.8,27.1-14.7,43.3-14.7,17.6.5,30.4,5.6,38.3,15.4,7.9,9.8,12.3,22.3,13.2,37.6v196.3c0,0,73.6,0,73.6,0v-222.8c-.9-26.3-10.2-47.8-27.8-64.5ZM617.8,394.6c0,22-3.8,41.3-11.5,58-7.6,16.7-18.1,30-31.5,39.8-13.3,9.8-28.1,14.7-44.4,14.7-18.1-.5-31.5-5.6-40.1-15.4-8.6-9.8-13.1-22.3-13.6-37.6v-196.3c0,0-73.6,0-73.6,0v222.1c.4,26.7,9.8,48.5,28.2,65.2,18.4,16.7,41.6,25.1,69.7,25.1,28.6,0,53.4-6.6,74.4-19.7,19.9-12.4,34.8-28.6,44.8-48.5l5.2,56h65.8s0-300.2,0-300.2h-73.7s0,136.8,0,136.8ZM260.1,269.5c-18.4-16.7-41.6-25.1-69.7-25.1-28.6,0-53.2,6.4-73.7,19.3-20,12.6-35.1,28.4-45.1,47.4V0C71.7,0,.2,0,.2,0L0,556.7h73.7s0-136.8,0-136.8c0-21.5,3.8-40.7,11.5-57.7,7.6-16.9,18.1-30.3,31.5-40.1,13.3-9.8,28.1-14.7,44.4-14.7,18.1.5,31.5,5.6,40,15.4,8.6,9.8,13.1,22.3,13.6,37.6v196.3c0,0,73.6,0,73.6,0v-222.1c-.4-26.7-9.8-48.5-28.2-65.2Z" class="st0"></path>
  </g>
</svg>