<?xml version="1.0" encoding="UTF-8" standalone="no"?>
<!-- Created with Inkscape (http://www.inkscape.org/) -->

<svg
   width="4.6760693mm"
   height="6.6071749mm"
   viewBox="0 0 4.6760692 6.607175"
   version="1.1"
   id="svg2813"
   inkscape:version="1.2 (dc2aedaf03, 2022-05-15)"
   sodipodi:docname="Logo-PapaLima.svg"
   xmlns:inkscape="http://www.inkscape.org/namespaces/inkscape"
   xmlns:sodipodi="http://sodipodi.sourceforge.net/DTD/sodipodi-0.dtd"
   xmlns="http://www.w3.org/2000/svg"
   xmlns:svg="http://www.w3.org/2000/svg">
  <sodipodi:namedview
     id="namedview2815"
     pagecolor="#ffffff"
     bordercolor="#000000"
     borderopacity="0.25"
     inkscape:showpageshadow="2"
     inkscape:pageopacity="0"
     inkscape:pagecheckerboard="0"
     inkscape:deskcolor="#d1d1d1"
     inkscape:document-units="mm"
     showgrid="false"
     inkscape:zoom="8"
     inkscape:cx="31"
     inkscape:cy="23"
     inkscape:window-width="1920"
     inkscape:window-height="1145"
     inkscape:window-x="1912"
     inkscape:window-y="-8"
     inkscape:window-maximized="1"
     inkscape:current-layer="g3183" />
  <defs
     id="defs2810">
    <clipPath
       clipPathUnits="userSpaceOnUse"
       id="clipPath3774">
      <path
         d="m -253.9663,214.2675 h 500 v -500 h -500 z"
         id="path3776"
         style="stroke-width:0.999998" />
    </clipPath>
  </defs>
  <g
     inkscape:label="Layer 1"
     inkscape:groupmode="layer"
     id="layer1"
     transform="translate(-5.5210683,-143.56884)">
    <g
       id="g3183"
       transform="matrix(0.35277777,0,0,-0.35277777,9.258396,149.32829)"
       clip-path="url(#clipPath3774)">
      <path
         d="M 0,0 C -1.412,0 -5.271,-1.142 -6.915,-1.42 -7.421,-1.505 -7.196,0.733 -7.196,0.733 V 3.77 h -0.008 v 3.417 c 0,0.908 0.163,1.681 0.488,2.305 0.312,0.61 0.705,0.922 1.153,0.922 0.149,0 0.311,-0.041 0.461,-0.109 0.311,-0.176 0.474,-0.42 0.474,-0.718 0,-0.244 -0.081,-0.529 -0.23,-0.841 C -5.021,8.434 -5.211,8.095 -5.414,7.743 -5.685,7.309 -5.929,6.861 -6.146,6.414 -6.377,5.953 -6.485,5.492 -6.485,5.044 -6.485,4.8 -6.431,4.556 -6.336,4.326 -6.241,4.082 -6.065,3.851 -5.835,3.634 -5.468,3.268 -4.818,3.01 -3.95,3.01 c 0.949,0 1.776,0.19 2.495,0.556 0.719,0.367 1.315,0.868 1.79,1.492 0.475,0.624 0.84,1.329 1.085,2.102 0.23,0.773 0.352,1.559 0.352,2.359 0,0.773 -0.108,1.532 -0.339,2.264 -0.23,0.719 -0.569,1.383 -1.017,1.966 -0.447,0.583 -1.017,1.044 -1.708,1.383 -0.692,0.339 -1.505,0.516 -2.427,0.516 -0.502,0 -0.977,-0.095 -1.397,-0.299 -0.42,-0.203 -0.786,-0.42 -1.098,-0.678 -0.312,-0.257 -0.556,-0.488 -0.732,-0.691 -0.258,-0.312 -0.231,-0.271 -0.258,-0.298 v 1.979 c 0,0.176 -0.014,0.326 -0.041,0.461 -0.04,0.136 -0.108,0.204 -0.203,0.204 -0.095,0 -0.244,-0.082 -0.434,-0.258 -0.393,-0.393 0.014,0 -2.563,-2.576 -0.095,-0.109 -0.149,-0.204 -0.149,-0.271 0,-0.068 0.027,-0.095 0.095,-0.095 0.041,0 0.081,0.013 0.122,0.027 l 0.258,0.122 c 0.149,0.122 0.284,0.176 0.434,0.176 0.027,0 0.054,0 0.095,-0.014 0.162,-0.054 0.257,-0.257 0.257,-0.61 v -2.332 c 0.068,-0.393 0.217,-0.596 0.461,-0.596 0.122,0 0.258,0.081 0.407,0.23 0.068,0.081 0.122,0.203 0.19,0.38 0.054,0.149 0.162,0.379 0.312,0.718 0.569,1.153 1.247,2.034 2.047,2.644 0.787,0.597 1.559,0.895 2.305,0.895 0.163,0 0.326,-0.013 0.488,-0.04 0.922,-0.217 1.614,-0.801 2.061,-1.75 0.448,-0.949 0.665,-2.006 0.665,-3.159 0,-0.935 -0.136,-1.858 -0.421,-2.752 C -1.157,6.143 -1.699,5.397 -2.431,4.841 -3.163,4.285 -3.841,4 -4.452,4 c -0.311,0 -0.569,0.082 -0.772,0.244 -0.217,0.15 -0.353,0.394 -0.421,0.732 -0.013,0.068 -0.027,0.15 -0.027,0.231 0,0.393 0.136,0.841 0.393,1.315 0.258,0.475 0.516,0.909 0.8,1.329 0.258,0.38 0.434,0.692 0.556,0.922 0.122,0.298 0.177,0.597 0.177,0.881 0,0.489 -0.15,0.923 -0.434,1.289 -0.299,0.366 -0.692,0.555 -1.18,0.555 -0.054,0 -0.108,0 -0.176,-0.013 C -6.201,11.39 -6.811,10.97 -7.38,10.224 -7.95,9.478 -8.411,8.624 -8.777,7.661 -9.143,6.685 -9.333,5.831 -9.333,5.112 l 0.006,-4.161 c 0,0 -0.109,-3.34 0.937,-3.34 2.919,0 6.136,0.543 8.526,0.543 0.964,0 1.534,-0.055 1.86,-0.34 0.163,-0.149 0.299,-0.217 0.407,-0.217 0.177,0.027 0.258,0.149 0.258,0.38 C 2.661,-1.317 1.806,0 0,0"
         style="fill:#ffcc00;fill-opacity:1;fill-rule:nonzero;stroke:none"
         id="path3185" />
    </g>
  </g>
</svg>
