<svg width="119" height="65" viewBox="0 0 119 65" fill="none" xmlns="http://www.w3.org/2000/svg">
<g clip-path="url(#clip0_93_304)">
<path fill-rule="evenodd" clip-rule="evenodd" d="M112.991 20.4044V31.2235C112.991 32.9239 112.679 34.4424 112.073 35.7869C111.466 37.1234 110.628 38.1832 109.558 38.9583C108.496 39.7333 107.315 40.1208 106.014 40.1208C104.569 40.0813 103.499 39.6779 102.813 38.9029C102.126 38.1278 101.767 37.1393 101.727 35.9292V20.4044H95.8514V37.9697C95.8833 40.0813 96.6337 41.8054 98.1026 43.1261C99.5715 44.4469 101.424 45.1112 103.667 45.1112C105.95 45.1112 107.914 44.6051 109.55 43.5848C111.147 42.5883 112.352 41.3388 113.15 39.8361V64.4322H118.85L118.866 20.4044H112.983H112.991ZM84.6114 21.4168C83.2064 20.096 81.3943 19.4317 79.191 19.4317C77.746 19.4317 76.3969 19.6689 75.1356 20.1356C73.8823 20.6101 72.7966 21.2665 71.8786 22.1206C71.0404 22.8957 70.3857 23.7656 69.8988 24.7147L69.5396 20.3886H64.2309V44.1305H70.1143V33.3668C70.1143 31.6269 70.4097 30.0926 71.0004 28.7481C71.5912 27.4036 72.3895 26.3518 73.4033 25.5767C74.4092 24.8017 75.5667 24.4142 76.8599 24.4142C78.2649 24.4537 79.2868 24.857 79.9174 25.6321C80.5481 26.4072 80.8993 27.3957 80.9712 28.6058V44.1305H86.8466V26.51C86.7748 24.43 86.0324 22.7296 84.6273 21.4089L84.6114 21.4168ZM49.3187 31.2077C49.3187 32.9476 49.0154 34.474 48.4007 35.7948C47.794 37.1155 46.9558 38.1674 45.8861 38.9424C44.8243 39.7175 43.6428 40.105 42.3416 40.105C40.8967 40.0655 39.827 39.6621 39.1404 38.8871C38.4539 38.112 38.0947 37.1234 38.0548 35.9134V20.3886H32.1793V37.9539C32.2112 40.0655 32.9616 41.7896 34.4305 43.1103C35.8994 44.4311 37.7514 45.0954 39.9946 45.0954C42.2778 45.0954 44.2575 44.5734 45.934 43.5374C47.5226 42.5567 48.712 41.2755 49.5103 39.7017L49.9254 44.1305H55.1782V20.3886H49.2948V31.2077H49.3187ZM20.7637 21.3139C19.2948 19.9932 17.4428 19.3289 15.1996 19.3289C12.9164 19.3289 10.9526 19.835 9.31611 20.8552C7.71952 21.8517 6.51409 23.1013 5.7158 24.604V0C5.72378 0 0.0159659 0 0.0159659 0L0 44.0277H5.88344V33.2086C5.88344 31.5083 6.18679 29.9898 6.80148 28.6453C7.40819 27.3087 8.2464 26.249 9.31611 25.4739C10.3778 24.6989 11.5593 24.3113 12.8605 24.3113C14.3055 24.3509 15.3752 24.7542 16.0537 25.5293C16.7403 26.3043 17.0995 27.2929 17.1394 28.503V44.0277H23.0149V26.4625C22.9829 24.3509 22.2325 22.6268 20.7637 21.306V21.3139Z" fill="#FEE49B"/>
</g>
<defs>
<clipPath id="clip0_93_304">
<rect width="118.866" height="64.4322" fill="white"/>
</clipPath>
</defs>
</svg>
