<svg width="40" height="57" viewBox="0 0 40 57" fill="none" xmlns="http://www.w3.org/2000/svg">
<g clip-path="url(#clip0_93_307)">
<mask id="mask0_93_307" style="mask-type:luminance" maskUnits="userSpaceOnUse" x="-735" y="-599" width="1510" height="1513">
<path d="M-734.292 -598.78H774.286V913.738H-734.292V-598.78Z" fill="white"/>
</mask>
<g mask="url(#mask0_93_307)">
<path d="M31.9637 49.3866C27.7035 49.3866 16.0603 52.8412 11.1001 53.6822C9.57343 53.9393 10.2523 47.1693 10.2523 47.1693V37.9822H10.2282V27.6457C10.2282 24.8989 10.72 22.5606 11.7005 20.673C12.6419 18.8277 13.8276 17.8839 15.1793 17.8839C15.6289 17.8839 16.1176 18.0079 16.5702 18.2136C17.5085 18.746 18.0003 19.4841 18.0003 20.3856C18.0003 21.1237 17.756 21.9858 17.3064 22.9296C16.8146 23.8735 16.2413 24.8989 15.6289 25.9638C14.8112 27.2766 14.075 28.6318 13.4203 29.984C12.7233 31.3786 12.3975 32.7731 12.3975 34.1283C12.3975 34.8664 12.5604 35.6045 12.847 36.3003C13.1337 37.0384 13.6647 37.7372 14.3586 38.3936C15.4659 39.5008 17.4271 40.2812 20.046 40.2812C22.9093 40.2812 25.4044 39.7065 27.5738 38.5993C29.7431 37.4891 31.5413 35.9736 32.9745 34.086C34.4076 32.1984 35.5089 30.0657 36.2481 27.7274C36.942 25.389 37.3101 23.0113 37.3101 20.5913C37.3101 18.2529 36.9843 15.9569 36.2873 13.7426C35.5934 11.5676 34.5706 9.55899 33.2189 7.79539C31.8702 6.0318 30.1504 4.63726 28.0656 3.61177C25.9777 2.58629 23.5248 2.05085 20.7429 2.05085C19.2283 2.05085 17.7952 2.33823 16.528 2.95534C15.2608 3.56942 14.1565 4.22586 13.2151 5.00632C12.2738 5.78375 11.5376 6.48254 11.0066 7.09661C10.2282 8.04043 10.3096 7.9164 10.2282 7.99807V2.01153C10.2282 1.47912 10.1859 1.02537 10.1045 0.616993C9.98377 0.205585 9.7786 -0.000118256 9.49197 -0.000118256C9.20534 -0.000118256 8.75578 0.247932 8.18252 0.780338C6.99678 1.96918 8.22476 0.780342 0.449557 8.57283C0.162927 8.90256 0 9.18994 0 9.39262C0 9.59832 0.081464 9.67999 0.286631 9.67999C0.410334 9.67999 0.531019 9.64067 0.654723 9.59832L1.43315 9.22927C1.8827 8.86021 2.29002 8.69686 2.74259 8.69686C2.82406 8.69686 2.90552 8.69686 3.02922 8.73921C3.518 8.90256 3.80463 9.51664 3.80463 10.5845V17.6389C4.0098 18.8277 4.45936 19.4418 5.19554 19.4418C5.56363 19.4418 5.97397 19.1968 6.42352 18.746C6.62869 18.501 6.79162 18.1319 6.99678 17.5965C7.15971 17.1458 7.48556 16.45 7.93813 15.4245C9.6549 11.9367 11.7005 9.27161 14.1143 7.42634C16.4888 5.6204 18.818 4.71894 21.0688 4.71894C21.5606 4.71894 22.0524 4.75826 22.5412 4.83994C25.323 5.49637 27.4109 7.26299 28.7595 10.1338C30.1112 13.0045 30.7659 16.202 30.7659 19.6898C30.7659 22.5182 30.3556 25.3103 29.4957 28.0147C28.4729 30.8038 26.8376 33.0605 24.629 34.7424C22.4205 36.4243 20.3748 37.2865 18.5314 37.2865C17.593 37.2865 16.8146 37.0384 16.2021 36.5484C15.5474 36.0946 15.1371 35.3565 14.9319 34.334C14.8927 34.1283 14.8504 33.8803 14.8504 33.6352C14.8504 32.4464 15.2608 31.0912 16.0362 29.6573C16.8146 28.2204 17.593 26.9076 18.4499 25.6371C19.2283 24.4875 19.7593 23.5437 20.1274 22.848C20.4955 21.9465 20.6615 21.042 20.6615 20.1829C20.6615 18.7037 20.2089 17.3908 19.352 16.2836C18.4499 15.1765 17.2642 14.6048 15.7918 14.6048C15.6289 14.6048 15.4659 14.6048 15.2608 14.6441C13.2544 14.9315 11.4139 16.202 9.69713 18.4586C7.97736 20.7153 6.58645 23.2987 5.48217 26.2118C4.37789 29.1642 3.80463 31.7476 3.80463 33.9226L3.82274 46.5098C3.82274 46.5098 3.49386 56.6134 6.64981 56.6134C15.4569 56.6134 25.1631 54.9708 32.3741 54.9708C35.2826 54.9708 37.0024 55.1372 37.986 55.9993C38.4778 56.4501 38.8881 56.6558 39.214 56.6558C39.748 56.5741 39.9924 56.205 39.9924 55.5062C39.9924 53.3706 37.4127 49.3866 31.9637 49.3866Z" fill="#FFCC00"/>
</g>
</g>
<defs>
<clipPath id="clip0_93_307">
<rect width="39.9924" height="56.6559" fill="white"/>
</clipPath>
</defs>
</svg>
